PathFileType	4	(X/Y/Z)	 s02c0103.trc
DataRate	CameraRate	NumFrames	NumMarkers	Units	OrigDataRate	OrigDataStartFrame	OrigNumFrames
200	200	5	50	mm	200	1	2000
Frame#	Time	racr			lacr			c7			jug			rlel			rdr			llel			ldr			s2			lic			ric			lasi			rasi			rpsi			lpsi			rgt			lgt			rth1			rth2			rth3			rth4			rlfc			rmfc			rsh1			rsh2			rsh3			rsh4			rlmal			rmmal			rtoe			rmt5			rmt1			lth1			lth2			lth4			lth3			llfc			lmfc			lsh1			lsh2			lsh3			lsh4			llmal			lmmal			lcal			ltoe			lmt5			SBIKE			LBIKE			RBIKE			
		X1	Y1	Z1	X2	Y2	Z2	X3	Y3	Z3	X4	Y4	Z4	X5	Y5	Z5	X6	Y6	Z6	X7	Y7	Z7	X8	Y8	Z8	X9	Y9	Z9	X10	Y10	Z10	X11	Y11	Z11	X12	Y12	Z12	X13	Y13	Z13	X14	Y14	Z14	X15	Y15	Z15	X16	Y16	Z16	X17	Y17	Z17	X18	Y18	Z18	X19	Y19	Z19	X20	Y20	Z20	X21	Y21	Z21	X22	Y22	Z22	X23	Y23	Z23	X24	Y24	Z24	X25	Y25	Z25	X26	Y26	Z26	X27	Y27	Z27	X28	Y28	Z28	X29	Y29	Z29	X30	Y30	Z30	X31	Y31	Z31	X32	Y32	Z32	X33	Y33	Z33	X34	Y34	Z34	X35	Y35	Z35	X36	Y36	Z36	X37	Y37	Z37	X38	Y38	Z38	X39	Y39	Z39	X40	Y40	Z40	X41	Y41	Z41	X42	Y42	Z42	X43	Y43	Z43	X44	Y44	Z44	X45	Y45	Z45	X46	Y46	Z46	X47	Y47	Z47	X48	Y48	Z48	X49	Y49	Z49	X50	Y50	Z50	
1	0.0050	480.424534	1280.898405	-122.951452	507.933104	1292.504509	-464.802825	515.131251	1305.715878	-298.256887	447.851642	1188.166779	-298.075227	591.159807	1034.122285	-104.669911	711.210011	836.372673	-129.988895	582.092730	1028.474339	-517.518032	711.380766	834.321469	-473.040338	0.078500	1121.251371	-323.731667	NaN	NaN	NaN	123.157108	1106.987882	-175.908852	186.360415	1055.172196	-435.090403	173.783771	1084.575207	-206.576090	13.330841	1146.401567	-284.132425	27.958546	1149.201804	-370.743936	90.557438	1041.907771	-133.247861	82.377229	1007.949699	-496.282319	177.261175	1011.426864	-128.885794	264.109610	996.236920	-135.594851	333.366418	951.452614	-110.993353	274.846774	1018.516229	-163.983967	451.948100	859.689255	-141.099216	450.032950	839.645100	-253.949622	444.166739	745.773119	-126.096665	436.319751	658.038467	-146.152710	393.053938	584.228057	-140.992043	450.050190	657.697593	-182.100643	346.282478	474.360809	-148.695095	355.325982	496.430512	-227.504447	557.893734	412.474636	-184.958711	448.174574	397.390802	-129.980828	477.140398	412.309714	-236.287016	189.016658	914.463372	-510.704624	260.737826	865.163874	-506.947963	284.951808	886.039814	-488.624509	296.954513	783.914389	-506.090198	354.235560	699.018246	-482.342131	354.388821	671.168491	-377.845532	303.026972	608.318538	-500.740051	266.110204	533.311261	-482.733384	191.601957	480.339895	-487.718294	280.394884	523.590113	-446.783006	109.955869	415.373279	-470.933171	124.676623	403.918604	-394.863228	30.612519	408.001684	-429.660337	247.229933	221.436362	-441.579669	148.681938	269.477878	-499.572193	-126.707725	872.076902	-308.124514	37.213186	86.583132	-514.337664	34.457934	82.466027	-114.041728	
2	0.0100	480.535748	1280.944879	-123.064743	508.025086	1292.584793	-464.750738	515.154882	1305.669642	-298.340223	447.902895	1188.114271	-298.181144	591.270604	1034.156822	-104.688291	711.250051	836.359538	-129.954210	582.219847	1028.544269	-517.564422	711.404791	834.320642	-473.017803	-0.027036	1121.415519	-323.447155	NaN	NaN	NaN	123.231568	1106.871095	-175.912890	186.220858	1055.221791	-435.261867	173.755378	1084.484485	-206.651073	13.249819	1146.500946	-283.870920	27.823536	1149.281912	-370.468004	90.525046	1041.828826	-133.196679	82.209188	1008.247685	-496.297921	177.212419	1011.337878	-128.905924	264.047497	996.156428	-135.630590	333.283370	951.349099	-111.071405	274.754580	1018.453814	-164.004875	451.816678	859.588148	-141.268140	449.791825	839.571272	-254.088264	443.974076	745.723531	-126.264072	435.892917	657.979599	-146.315014	392.538244	584.200789	-141.037437	449.615577	657.614903	-182.271391	345.560233	474.322823	-148.788168	354.519775	496.493592	-227.580671	557.387328	413.474498	-184.955798	447.720431	397.917319	-130.000587	476.609881	412.930505	-236.404946	188.992210	914.833716	-510.619834	260.719075	865.570349	-506.900454	284.921960	886.438672	-488.575774	296.915364	784.350459	-506.139030	354.236063	699.212880	-482.406205	354.546846	671.367678	-377.857223	303.417358	608.266570	-500.787973	266.650983	533.176375	-482.789489	192.242539	479.935371	-487.790608	280.910709	523.544416	-446.763974	110.627142	414.832254	-471.162133	125.302792	403.434890	-395.036416	31.345219	407.750281	-429.780811	247.439229	220.529501	-441.634120	149.031578	268.819324	-499.632722	-126.721051	872.070854	-308.122877	37.213994	86.562919	-514.359688	34.481008	82.449105	-114.021048	
3	0.0150	480.645434	1280.990345	-123.211097	508.098326	1292.689258	-464.688562	515.178981	1305.629750	-298.420182	447.996172	1188.068288	-298.332951	591.385128	1034.176582	-104.748849	711.289312	836.358657	-129.934878	582.350030	1028.613931	-517.615374	711.424094	834.335716	-473.045394	-0.145638	1121.454929	-323.197239	NaN	NaN	NaN	123.246770	1106.772227	-175.887878	186.112399	1055.289305	-435.408676	173.725443	1084.388378	-206.708501	13.128751	1146.596987	-283.585740	27.719601	1149.364268	-370.217767	90.473230	1041.768488	-133.128965	82.098949	1008.485295	-496.289416	177.140563	1011.296727	-128.894764	263.981712	996.116217	-135.680670	333.238754	951.291145	-111.184120	274.673269	1018.432644	-164.075688	451.714775	859.537908	-141.450775	449.579750	839.539048	-254.230435	443.812689	745.695251	-126.432904	435.594861	657.953739	-146.444313	392.133920	584.289803	-141.120506	449.306630	657.559260	-182.406287	344.961728	474.357985	-148.847299	353.885793	496.575323	-227.630258	556.968841	414.262758	-184.975706	447.363290	398.281281	-130.026295	476.227042	413.447113	-236.370831	188.998565	915.277247	-510.532353	260.695735	865.907807	-506.875469	284.937285	886.763851	-488.537208	296.879498	784.665014	-506.190516	354.213049	699.300975	-482.453915	354.600933	671.475718	-377.855139	303.716614	608.181730	-500.839591	267.072895	533.018958	-482.817408	192.823274	479.615519	-487.933340	281.245105	523.460195	-446.744204	111.180880	414.378708	-471.380686	125.947342	402.978639	-395.200810	31.899371	407.504954	-429.899992	247.571401	219.792155	-441.593189	149.290518	268.294302	-499.656401	-126.727213	872.073079	-308.134819	37.216523	86.567295	-514.363666	34.150584	82.666077	-114.204415	
4	0.0200	480.742649	1281.041616	-123.322115	508.166665	1292.767298	-464.644137	515.168368	1305.562676	-298.502477	448.053869	1188.015405	-298.485497	589.896042	1033.096437	-103.276967	711.325042	836.338027	-129.953579	582.592533	1028.770310	-517.311430	711.406779	834.584387	-473.791122	-0.359846	1122.227112	-322.862864	NaN	NaN	NaN	122.817551	1106.028218	-177.098335	186.002613	1055.353166	-435.516249	173.693963	1084.302897	-206.759762	12.456607	1146.802969	-283.201942	28.917579	1148.551978	-370.944306	90.391331	1041.696931	-133.059848	82.043658	1008.670538	-496.268748	177.103429	1011.288056	-128.882948	263.816679	995.928770	-135.943515	333.176085	951.292432	-111.285498	274.653239	1018.470306	-164.094787	451.836756	859.439510	-141.541692	449.406698	839.567267	-254.375222	443.664775	745.711287	-126.540896	434.154835	657.471948	-147.166985	391.929463	584.372261	-141.194779	447.620808	656.796718	-182.864591	344.071723	475.266735	-148.263470	353.535891	496.515710	-227.946665	556.756847	414.790000	-185.054418	447.458591	398.431727	-130.114233	475.965443	413.884783	-236.390884	189.059266	915.582741	-510.424596	260.706429	866.137680	-506.828326	285.043937	886.945964	-488.502928	296.850432	784.876364	-506.228682	354.379622	699.154988	-482.653808	354.647900	671.479554	-377.877205	304.159403	607.879980	-501.003905	266.567751	531.874559	-483.591673	193.150603	479.371616	-488.097881	281.459482	523.301641	-446.730118	111.663336	413.943932	-471.589104	126.357567	402.673826	-395.363304	32.348477	407.266893	-429.993148	247.720564	219.215821	-441.581502	149.431134	267.723667	-499.776042	-126.703910	872.035135	-308.166368	37.217708	86.575598	-514.358420	34.466960	82.452451	-114.019005	
5	0.0250	480.563895	1281.470186	-122.893054	508.488914	1294.125479	-464.393175	514.828337	1305.858323	-297.923568	448.071651	1188.017009	-298.610030	590.984118	1034.578908	-104.048960	711.289787	836.318298	-129.840060	582.645914	1029.189559	-517.147446	711.965436	834.839573	-473.619075	-0.458291	1122.938301	-322.571042	NaN	NaN	NaN	122.701407	1106.435594	-176.723138	185.427073	1055.561579	-434.826680	173.662360	1084.194712	-206.832471	12.240715	1147.134775	-282.631655	28.816508	1148.802231	-370.758134	90.034437	1042.092521	-132.758866	81.908383	1008.959332	-496.117442	176.749022	1011.739657	-128.453994	263.482580	996.384554	-135.642040	332.797525	951.807471	-110.799869	274.597897	1018.528998	-164.242297	451.700607	859.663088	-141.854635	448.836789	840.289301	-253.909076	443.157024	746.214080	-126.374732	434.029890	658.161830	-146.989604	391.445835	584.897646	-141.118134	447.473141	657.033673	-182.943517	343.698939	475.304092	-148.136679	353.106164	497.059217	-227.585247	556.097391	415.435135	-184.646061	446.769207	399.191906	-129.666490	475.549823	414.471825	-236.252474	188.931537	916.177398	-510.017676	260.541147	866.662975	-506.556097	284.836895	887.378475	-488.086126	296.847926	785.124936	-506.289495	354.118425	699.488504	-482.543546	354.227808	672.103551	-377.364653	304.140885	607.987972	-500.936916	266.375121	532.109761	-483.139435	193.186675	479.610201	-487.947475	281.283663	523.445627	-446.164325	111.816890	413.704700	-471.726170	126.773079	402.201421	-395.637292	32.331273	407.375411	-429.892212	247.698826	218.947075	-441.368590	149.490039	267.493808	-499.654937	-126.889778	872.078312	-308.157774	37.131006	86.448482	-514.395141	33.812714	83.135220	-114.269870	
